<mxfile host="app.diagrams.net" agent="Mozilla/5.0 (Windows NT 10.0; Win64; x64; rv:139.0) Gecko/20100101 Firefox/139.0" version="27.1.6">
  <diagram name="Page-1" id="5Ki1utD-ZCXWQaxvEp8R">
    <mxGraphModel dx="1572" dy="942" grid="1" gridSize="10" guides="1" tooltips="1" connect="1" arrows="1" fold="1" page="1" pageScale="1" pageWidth="3300" pageHeight="4681" math="0" shadow="0">
      <root>
        <mxCell id="0" />
        <mxCell id="1" parent="0" />
        <mxCell id="gUt50mQ2FBtieenNLn0I-10" style="edgeStyle=orthogonalEdgeStyle;rounded=0;orthogonalLoop=1;jettySize=auto;html=1;exitX=0.5;exitY=1;exitDx=0;exitDy=0;entryX=0;entryY=0.5;entryDx=0;entryDy=0;" parent="1" source="gUt50mQ2FBtieenNLn0I-1" target="gUt50mQ2FBtieenNLn0I-8" edge="1">
          <mxGeometry relative="1" as="geometry" />
        </mxCell>
        <mxCell id="gUt50mQ2FBtieenNLn0I-1" value="symbol&#xa;Hospital&#xa;Readmission" style="rectangle;fillColor=#dae8fc;strokeColor=#6c8ebf;" parent="1" name="symbol" vertex="1">
          <mxGeometry x="700" y="440" width="100" height="50" as="geometry" />
        </mxCell>
        <mxCell id="gUt50mQ2FBtieenNLn0I-3" style="edgeStyle=orthogonalEdgeStyle;rounded=0;orthogonalLoop=1;jettySize=auto;html=1;exitX=0;exitY=0.5;exitDx=0;exitDy=0;entryX=1;entryY=0.5;entryDx=0;entryDy=0;" parent="1" source="gUt50mQ2FBtieenNLn0I-2" target="gUt50mQ2FBtieenNLn0I-1" edge="1">
          <mxGeometry relative="1" as="geometry" />
        </mxCell>
        <mxCell id="gUt50mQ2FBtieenNLn0I-2" value="infer:deduce" style="rounded=1;whiteSpace=wrap;html=1;arcSize=50;fillColor=#bac8d3;strokeColor=#23445d;" parent="1" name="infer:deduce" vertex="1">
          <mxGeometry x="880" y="440" width="100" height="50" as="geometry" />
        </mxCell>
        <mxCell id="gUt50mQ2FBtieenNLn0I-5" style="edgeStyle=orthogonalEdgeStyle;rounded=0;orthogonalLoop=1;jettySize=auto;html=1;exitX=0.5;exitY=1;exitDx=0;exitDy=0;entryX=0.5;entryY=0;entryDx=0;entryDy=0;" parent="1" source="gUt50mQ2FBtieenNLn0I-4" target="gUt50mQ2FBtieenNLn0I-2" edge="1">
          <mxGeometry relative="1" as="geometry" />
        </mxCell>
        <mxCell id="gUt50mQ2FBtieenNLn0I-4" value="data&#xa;Patient Records" style="rectangle;fillColor=#fff2cc;strokeColor=#d6b656;" parent="1" name="data" vertex="1">
          <mxGeometry x="880" y="310" width="100" height="50" as="geometry" />
        </mxCell>
        <mxCell id="gUt50mQ2FBtieenNLn0I-7" style="edgeStyle=orthogonalEdgeStyle;rounded=0;orthogonalLoop=1;jettySize=auto;html=1;exitX=0;exitY=0.5;exitDx=0;exitDy=0;entryX=1;entryY=0.5;entryDx=0;entryDy=0;" parent="1" source="gUt50mQ2FBtieenNLn0I-6" target="gUt50mQ2FBtieenNLn0I-2" edge="1">
          <mxGeometry relative="1" as="geometry" />
        </mxCell>
        <mxCell id="gUt50mQ2FBtieenNLn0I-6" value="model&#xa;WFM Model" style="shape=hexagon;perimeter=hexagonPerimeter2;fillColor=#b0e3e6;strokeColor=#0e8088;" parent="1" name="model" vertex="1">
          <mxGeometry x="1060" y="440" width="120" height="50" as="geometry" />
        </mxCell>
        <mxCell id="gUt50mQ2FBtieenNLn0I-9" style="edgeStyle=orthogonalEdgeStyle;rounded=0;orthogonalLoop=1;jettySize=auto;html=1;exitX=0.5;exitY=0;exitDx=0;exitDy=0;entryX=1;entryY=0.5;entryDx=0;entryDy=0;" parent="1" source="gUt50mQ2FBtieenNLn0I-8" target="gUt50mQ2FBtieenNLn0I-6" edge="1">
          <mxGeometry relative="1" as="geometry" />
        </mxCell>
        <mxCell id="gUt50mQ2FBtieenNLn0I-8" value="generate:train" style="rounded=1;whiteSpace=wrap;html=1;arcSize=50;fillColor=#e1d5e7;strokeColor=#9673a6;" parent="1" name="generate:train" vertex="1">
          <mxGeometry x="1210" y="540" width="100" height="50" as="geometry" />
        </mxCell>
        <mxCell id="gUt50mQ2FBtieenNLn0I-13" style="edgeStyle=orthogonalEdgeStyle;rounded=0;orthogonalLoop=1;jettySize=auto;html=1;exitX=1;exitY=0.5;exitDx=0;exitDy=0;entryX=0.5;entryY=1;entryDx=0;entryDy=0;" parent="1" source="gUt50mQ2FBtieenNLn0I-12" target="gUt50mQ2FBtieenNLn0I-8" edge="1">
          <mxGeometry relative="1" as="geometry" />
        </mxCell>
        <mxCell id="gUt50mQ2FBtieenNLn0I-12" value="data&#xa;Partitioned&#xa;Subsets" style="rectangle;fillColor=#fff2cc;strokeColor=#d6b656;" parent="1" name="data" vertex="1">
          <mxGeometry x="1070" y="640" width="100" height="50" as="geometry" />
        </mxCell>
        <mxCell id="gUt50mQ2FBtieenNLn0I-15" style="edgeStyle=orthogonalEdgeStyle;rounded=0;orthogonalLoop=1;jettySize=auto;html=1;exitX=0.5;exitY=0;exitDx=0;exitDy=0;entryX=0;entryY=0.5;entryDx=0;entryDy=0;" parent="1" source="gUt50mQ2FBtieenNLn0I-14" target="gUt50mQ2FBtieenNLn0I-12" edge="1">
          <mxGeometry relative="1" as="geometry" />
        </mxCell>
        <mxCell id="gUt50mQ2FBtieenNLn0I-14" value="transform:embed" style="rounded=1;whiteSpace=wrap;html=1;arcSize=50;fillColor=#f8cecc;strokeColor=#b85450;" parent="1" name="transform" vertex="1">
          <mxGeometry x="940" y="740" width="100" height="50" as="geometry" />
        </mxCell>
        <mxCell id="gUt50mQ2FBtieenNLn0I-17" style="edgeStyle=orthogonalEdgeStyle;rounded=0;orthogonalLoop=1;jettySize=auto;html=1;exitX=0;exitY=0.5;exitDx=0;exitDy=0;entryX=0.5;entryY=1;entryDx=0;entryDy=0;" parent="1" source="gUt50mQ2FBtieenNLn0I-16" target="gUt50mQ2FBtieenNLn0I-14" edge="1">
          <mxGeometry relative="1" as="geometry" />
        </mxCell>
        <mxCell id="gUt50mQ2FBtieenNLn0I-16" value="data&#xa;Weighted Training&#xa;Instances" style="rectangle;fillColor=#fff2cc;strokeColor=#d6b656;" parent="1" name="data" vertex="1">
          <mxGeometry x="1070" y="840" width="100" height="50" as="geometry" />
        </mxCell>
        <mxCell id="gUt50mQ2FBtieenNLn0I-20" style="edgeStyle=orthogonalEdgeStyle;rounded=0;orthogonalLoop=1;jettySize=auto;html=1;exitX=0;exitY=0.5;exitDx=0;exitDy=0;entryX=1;entryY=0.5;entryDx=0;entryDy=0;" parent="1" source="gUt50mQ2FBtieenNLn0I-19" target="gUt50mQ2FBtieenNLn0I-16" edge="1">
          <mxGeometry relative="1" as="geometry" />
        </mxCell>
        <mxCell id="gUt50mQ2FBtieenNLn0I-19" value="transform:embed" style="rounded=1;whiteSpace=wrap;html=1;arcSize=50;fillColor=#f8cecc;strokeColor=#b85450;" parent="1" name="transform" vertex="1">
          <mxGeometry x="1250" y="840" width="100" height="50" as="geometry" />
        </mxCell>
        <mxCell id="gUt50mQ2FBtieenNLn0I-32" style="edgeStyle=orthogonalEdgeStyle;rounded=0;orthogonalLoop=1;jettySize=auto;html=1;exitX=0.5;exitY=1;exitDx=0;exitDy=0;entryX=1;entryY=0.5;entryDx=0;entryDy=0;" parent="1" source="gUt50mQ2FBtieenNLn0I-21" target="gUt50mQ2FBtieenNLn0I-19" edge="1">
          <mxGeometry relative="1" as="geometry" />
        </mxCell>
        <mxCell id="gUt50mQ2FBtieenNLn0I-21" value="data&#xa;Prepared Dataset" style="rectangle;fillColor=#fff2cc;strokeColor=#d6b656;" parent="1" name="data" vertex="1">
          <mxGeometry x="1370" y="740" width="100" height="50" as="geometry" />
        </mxCell>
        <mxCell id="gUt50mQ2FBtieenNLn0I-24" style="edgeStyle=orthogonalEdgeStyle;rounded=0;orthogonalLoop=1;jettySize=auto;html=1;exitX=0.5;exitY=1;exitDx=0;exitDy=0;entryX=0.5;entryY=0;entryDx=0;entryDy=0;" parent="1" source="gUt50mQ2FBtieenNLn0I-23" target="gUt50mQ2FBtieenNLn0I-21" edge="1">
          <mxGeometry relative="1" as="geometry" />
        </mxCell>
        <mxCell id="gUt50mQ2FBtieenNLn0I-23" value="transform:embed" style="rounded=1;whiteSpace=wrap;html=1;arcSize=50;fillColor=#f8cecc;strokeColor=#b85450;" parent="1" name="transform" vertex="1">
          <mxGeometry x="1370" y="620" width="100" height="50" as="geometry" />
        </mxCell>
        <mxCell id="gUt50mQ2FBtieenNLn0I-26" style="edgeStyle=orthogonalEdgeStyle;rounded=0;orthogonalLoop=1;jettySize=auto;html=1;exitX=0.5;exitY=1;exitDx=0;exitDy=0;entryX=0.5;entryY=0;entryDx=0;entryDy=0;" parent="1" source="gUt50mQ2FBtieenNLn0I-25" target="gUt50mQ2FBtieenNLn0I-23" edge="1">
          <mxGeometry relative="1" as="geometry" />
        </mxCell>
        <mxCell id="gUt50mQ2FBtieenNLn0I-25" value="data&#xa;Patient Records" style="rectangle;fillColor=#fff2cc;strokeColor=#d6b656;" parent="1" name="data" vertex="1">
          <mxGeometry x="1370" y="500" width="100" height="50" as="geometry" />
        </mxCell>
      </root>
    </mxGraphModel>
  </diagram>
</mxfile>
